<svg width="911" height="379" viewBox="0 0 911 379" fill="none" xmlns="http://www.w3.org/2000/svg">
<path d="M304.497 207.716C308.407 193.426 328.067 154.716 354.607 139.786C372.607 129.706 394.747 125.476 416.307 127.156C437.867 128.836 466.167 141.156 475.407 158.156L452.607 208.436C454.367 191.566 459.607 174.926 468.997 160.726C488.317 131.476 525.347 117.556 560.737 119.976C616.437 123.766 651.857 150.976 637.837 212.886C622.577 146.516 681.097 103.706 726.597 84.3462C760.697 69.8462 802.247 67.6362 837.447 87.2162C901.807 123.026 921.377 196.216 903.957 256.466C886.607 316.466 832.627 342.536 772.027 357.746C711.427 372.956 647.907 368.276 585.427 368.206C418.527 367.996 246.897 400.846 87.597 351.036C54.787 340.776 29.247 326.936 9.93695 298.496C1.23695 285.656 -10.5231 256.816 18.1669 231.356C53.1669 200.286 79.9969 235.246 179.777 186.146C223.347 164.696 255.457 113.206 351.207 146.846" fill="#3AC977"/>
<g opacity="0.36">
<path opacity="0.36" d="M468.797 155.095C461.477 159.945 455.897 168.265 451.337 175.645C446.417 183.731 442.432 192.35 439.457 201.335C436.221 211.037 433.852 221.006 432.377 231.125C430.897 240.855 428.227 253.035 430.837 262.685C431.927 266.745 438.777 268.405 440.657 263.965C444.387 255.145 444.097 244.195 445.577 234.765C446.951 225.473 449.023 216.297 451.777 207.315C454.258 199.398 457.548 191.758 461.597 184.515C465.987 176.725 472.087 170.655 477.077 163.375C480.477 158.375 473.747 151.825 468.797 155.095V155.095Z" fill="#2F5755"/>
</g>
<g opacity="0.36">
<path opacity="0.36" d="M340.917 146.366C323.157 157.426 309.327 171.986 301.357 191.516C297.381 201.656 294.228 212.1 291.927 222.746C289.477 233.356 285.927 246.036 288.467 256.846C289.577 261.626 296.947 262.746 299.207 258.246C303.707 249.326 304.287 238.386 306.397 228.666C308.495 218.544 311.295 208.58 314.777 198.846C317.923 190.163 322.634 182.13 328.677 175.146C334.677 168.256 341.677 162.196 348.037 155.596C352.557 150.886 346.727 142.736 340.917 146.366V146.366Z" fill="#2F5755"/>
</g>
<path d="M781.986 79.7212C785.116 74.0512 787.326 67.7212 790.146 61.9112C793.206 55.5912 796.422 49.3512 799.796 43.1912C803.129 37.1379 806.596 31.1779 810.196 25.3112C812.036 22.3312 813.916 19.3679 815.836 16.4212C817.836 13.3512 820.256 10.4212 820.836 6.76122C821.416 3.10122 817.836 -0.578769 814.086 1.57123C808.146 4.95123 804.566 13.1712 801.086 18.8512C797.292 24.9779 793.666 31.2079 790.206 37.5412C786.832 43.7079 783.659 49.9746 780.686 56.3412C777.776 62.5612 774.356 69.0712 772.506 75.6912C770.926 81.3412 779.166 84.9812 782.056 79.6912L781.986 79.7212Z" fill="#2F5755"/>
<path d="M744.776 83.9309C747.006 78.2709 747.476 71.5709 748.946 65.6409C750.486 59.4009 752.276 53.2209 754.186 47.0909C758.293 34.2449 763.195 21.6673 768.866 9.43093C772.126 2.27093 761.576 -4.02908 758.206 3.20092C752.197 16.1006 747.12 29.4148 743.016 43.0409C741.076 49.5009 739.446 56.0409 738.066 62.6409C736.746 68.9609 734.596 76.1409 735.066 82.6409C735.466 88.3909 742.746 89.1409 744.786 83.9609L744.776 83.9309Z" fill="#2F5755"/>
</svg>
